<mxfile host="app.diagrams.net" modified="2021-08-01T07:28:52.332Z" agent="5.0 (Macintosh; Intel Mac OS X 10_15_7) AppleWebKit/537.36 (KHTML, like Gecko) Chrome/92.0.4515.107 Safari/537.36" etag="QTDptwrdLXonLL7HhZcr" version="14.9.3" type="github">
  <diagram id="R8PKZ2jecYrCqhi7OL4H" name="Page-1">
    <mxGraphModel dx="1426" dy="826" grid="1" gridSize="10" guides="1" tooltips="1" connect="1" arrows="1" fold="1" page="1" pageScale="1" pageWidth="827" pageHeight="1169" math="0" shadow="0">
      <root>
        <mxCell id="0" />
        <mxCell id="1" parent="0" />
        <mxCell id="B5Fr1_SWUjHJ27X6wM8K-2" style="edgeStyle=orthogonalEdgeStyle;rounded=0;orthogonalLoop=1;jettySize=auto;html=1;exitX=0.5;exitY=1;exitDx=0;exitDy=0;" edge="1" parent="1" source="B5Fr1_SWUjHJ27X6wM8K-1">
          <mxGeometry relative="1" as="geometry">
            <mxPoint x="380" y="160" as="targetPoint" />
          </mxGeometry>
        </mxCell>
        <mxCell id="B5Fr1_SWUjHJ27X6wM8K-1" value="开始" style="ellipse;whiteSpace=wrap;html=1;" vertex="1" parent="1">
          <mxGeometry x="320" y="30" width="120" height="80" as="geometry" />
        </mxCell>
        <mxCell id="B5Fr1_SWUjHJ27X6wM8K-14" style="edgeStyle=orthogonalEdgeStyle;rounded=0;orthogonalLoop=1;jettySize=auto;html=1;exitX=0.5;exitY=1;exitDx=0;exitDy=0;" edge="1" parent="1" source="B5Fr1_SWUjHJ27X6wM8K-3" target="B5Fr1_SWUjHJ27X6wM8K-4">
          <mxGeometry relative="1" as="geometry" />
        </mxCell>
        <mxCell id="B5Fr1_SWUjHJ27X6wM8K-21" style="edgeStyle=orthogonalEdgeStyle;rounded=0;orthogonalLoop=1;jettySize=auto;html=1;exitX=1;exitY=0.5;exitDx=0;exitDy=0;entryX=-0.033;entryY=0.425;entryDx=0;entryDy=0;entryPerimeter=0;" edge="1" parent="1" source="B5Fr1_SWUjHJ27X6wM8K-3" target="B5Fr1_SWUjHJ27X6wM8K-5">
          <mxGeometry relative="1" as="geometry" />
        </mxCell>
        <mxCell id="B5Fr1_SWUjHJ27X6wM8K-3" value="gin&amp;nbsp; handler" style="whiteSpace=wrap;html=1;aspect=fixed;" vertex="1" parent="1">
          <mxGeometry x="340" y="160" width="76" height="76" as="geometry" />
        </mxCell>
        <mxCell id="B5Fr1_SWUjHJ27X6wM8K-15" style="edgeStyle=orthogonalEdgeStyle;rounded=0;orthogonalLoop=1;jettySize=auto;html=1;exitX=0.5;exitY=1;exitDx=0;exitDy=0;entryX=0.5;entryY=0;entryDx=0;entryDy=0;" edge="1" parent="1" source="B5Fr1_SWUjHJ27X6wM8K-4" target="B5Fr1_SWUjHJ27X6wM8K-6">
          <mxGeometry relative="1" as="geometry" />
        </mxCell>
        <mxCell id="B5Fr1_SWUjHJ27X6wM8K-22" style="edgeStyle=orthogonalEdgeStyle;rounded=0;orthogonalLoop=1;jettySize=auto;html=1;exitX=1;exitY=0.5;exitDx=0;exitDy=0;entryX=0;entryY=0.5;entryDx=0;entryDy=0;" edge="1" parent="1" source="B5Fr1_SWUjHJ27X6wM8K-4" target="B5Fr1_SWUjHJ27X6wM8K-13">
          <mxGeometry relative="1" as="geometry" />
        </mxCell>
        <mxCell id="B5Fr1_SWUjHJ27X6wM8K-4" value="handle panic&amp;nbsp;" style="whiteSpace=wrap;html=1;aspect=fixed;" vertex="1" parent="1">
          <mxGeometry x="338" y="280" width="80" height="80" as="geometry" />
        </mxCell>
        <mxCell id="B5Fr1_SWUjHJ27X6wM8K-5" value="首先所有的请求通过&lt;br&gt;gin 框架的路由处理器进行转发" style="shape=document;whiteSpace=wrap;html=1;boundedLbl=1;" vertex="1" parent="1">
          <mxGeometry x="540" y="160" width="120" height="80" as="geometry" />
        </mxCell>
        <mxCell id="B5Fr1_SWUjHJ27X6wM8K-16" style="edgeStyle=orthogonalEdgeStyle;rounded=0;orthogonalLoop=1;jettySize=auto;html=1;exitX=0.5;exitY=1;exitDx=0;exitDy=0;" edge="1" parent="1" source="B5Fr1_SWUjHJ27X6wM8K-6" target="B5Fr1_SWUjHJ27X6wM8K-7">
          <mxGeometry relative="1" as="geometry" />
        </mxCell>
        <mxCell id="B5Fr1_SWUjHJ27X6wM8K-6" value="tracer&amp;nbsp;&lt;br&gt;跟踪器" style="whiteSpace=wrap;html=1;aspect=fixed;" vertex="1" parent="1">
          <mxGeometry x="338" y="400" width="80" height="80" as="geometry" />
        </mxCell>
        <mxCell id="B5Fr1_SWUjHJ27X6wM8K-17" style="edgeStyle=orthogonalEdgeStyle;rounded=0;orthogonalLoop=1;jettySize=auto;html=1;exitX=0.5;exitY=1;exitDx=0;exitDy=0;" edge="1" parent="1" source="B5Fr1_SWUjHJ27X6wM8K-7" target="B5Fr1_SWUjHJ27X6wM8K-8">
          <mxGeometry relative="1" as="geometry" />
        </mxCell>
        <mxCell id="B5Fr1_SWUjHJ27X6wM8K-7" value="日志处理" style="whiteSpace=wrap;html=1;aspect=fixed;" vertex="1" parent="1">
          <mxGeometry x="338" y="520" width="80" height="80" as="geometry" />
        </mxCell>
        <mxCell id="B5Fr1_SWUjHJ27X6wM8K-18" style="edgeStyle=orthogonalEdgeStyle;rounded=0;orthogonalLoop=1;jettySize=auto;html=1;exitX=0.5;exitY=1;exitDx=0;exitDy=0;entryX=0.5;entryY=0;entryDx=0;entryDy=0;" edge="1" parent="1" source="B5Fr1_SWUjHJ27X6wM8K-8" target="B5Fr1_SWUjHJ27X6wM8K-9">
          <mxGeometry relative="1" as="geometry" />
        </mxCell>
        <mxCell id="B5Fr1_SWUjHJ27X6wM8K-8" value="mux&amp;nbsp;&lt;br&gt;路由处理" style="whiteSpace=wrap;html=1;aspect=fixed;" vertex="1" parent="1">
          <mxGeometry x="338" y="640" width="80" height="80" as="geometry" />
        </mxCell>
        <mxCell id="B5Fr1_SWUjHJ27X6wM8K-19" style="edgeStyle=orthogonalEdgeStyle;rounded=0;orthogonalLoop=1;jettySize=auto;html=1;exitX=0.5;exitY=1;exitDx=0;exitDy=0;entryX=0.5;entryY=0;entryDx=0;entryDy=0;" edge="1" parent="1" source="B5Fr1_SWUjHJ27X6wM8K-9" target="B5Fr1_SWUjHJ27X6wM8K-11">
          <mxGeometry relative="1" as="geometry" />
        </mxCell>
        <mxCell id="B5Fr1_SWUjHJ27X6wM8K-9" value="RouteMonitor&lt;br&gt;路由的监控&amp;nbsp;" style="whiteSpace=wrap;html=1;aspect=fixed;" vertex="1" parent="1">
          <mxGeometry x="338" y="760" width="80" height="80" as="geometry" />
        </mxCell>
        <mxCell id="B5Fr1_SWUjHJ27X6wM8K-20" style="edgeStyle=orthogonalEdgeStyle;rounded=0;orthogonalLoop=1;jettySize=auto;html=1;exitX=0.5;exitY=1;exitDx=0;exitDy=0;entryX=0.5;entryY=0;entryDx=0;entryDy=0;" edge="1" parent="1" source="B5Fr1_SWUjHJ27X6wM8K-11" target="B5Fr1_SWUjHJ27X6wM8K-12">
          <mxGeometry relative="1" as="geometry" />
        </mxCell>
        <mxCell id="B5Fr1_SWUjHJ27X6wM8K-11" value="rocFilter" style="whiteSpace=wrap;html=1;aspect=fixed;" vertex="1" parent="1">
          <mxGeometry x="338" y="890" width="80" height="80" as="geometry" />
        </mxCell>
        <mxCell id="B5Fr1_SWUjHJ27X6wM8K-12" value="结束" style="ellipse;whiteSpace=wrap;html=1;" vertex="1" parent="1">
          <mxGeometry x="318" y="1020" width="120" height="80" as="geometry" />
        </mxCell>
        <mxCell id="B5Fr1_SWUjHJ27X6wM8K-13" value="recover 全局panic&amp;nbsp;" style="shape=document;whiteSpace=wrap;html=1;boundedLbl=1;" vertex="1" parent="1">
          <mxGeometry x="550" y="280" width="120" height="80" as="geometry" />
        </mxCell>
      </root>
    </mxGraphModel>
  </diagram>
</mxfile>
